<?xml version="1.0" encoding="UTF-8"?>
<!-- Generator: Adobe Illustrator 19.0.0, SVG Export Plug-In . SVG Version: 6.00 Build 0)  -->
<svg version="1.1" id="Layer_1" xmlns="http://www.w3.org/2000/svg" xmlns:xlink="http://www.w3.org/1999/xlink" x="0px" y="0px" viewBox="-45.9 136.4 692 569" style="enable-background:new -45.9 136.4 692 569;" xml:space="preserve">
<style type="text/css">
	.st0{fill:#CACACA;}
</style>
<path class="st0" d="M325.6,156.8l56.5,174.9l183.8-0.3c13,0,24,8,27.9,20.3c4.1,12.3-0.2,25.3-10.7,32.9L434.2,492.2l57.1,174.7  c4,12.3-0.2,25.3-10.7,32.9c-10.5,7.6-24.1,7.6-34.6,0L297.6,591.4L149.2,699.7c-10.5,7.6-24.1,7.6-34.5,0  c-10.5-7.6-14.7-20.6-10.7-32.9l57.1-174.7L12.2,384.5C1.7,376.8-2.5,364,1.4,351.6c4.1-12.3,15-20.3,27.9-20.3l183.8,0.3  l56.5-174.9c4-12.3,15-20.4,27.9-20.4C310.5,136.4,321.6,144.5,325.6,156.8L325.6,156.8L325.6,156.8z M297.6,246.9L252.7,386  l-146.1-0.3L225,471.4l-45.4,139l118.1-86.1l118.1,86.1l-45.4-139l118.4-85.7L342.7,386L297.6,246.9L297.6,246.9z"/>
</svg>